<?xml version="1.0" encoding="utf-8"?>
<!-- Generator: Adobe Illustrator 16.0.0, SVG Export Plug-In . SVG Version: 6.00 Build 0)  -->
<!DOCTYPE svg PUBLIC "-//W3C//DTD SVG 1.1//EN" "http://www.w3.org/Graphics/SVG/1.1/DTD/svg11.dtd">
<svg version="1.1" id="Layer_1" xmlns="http://www.w3.org/2000/svg" xmlns:xlink="http://www.w3.org/1999/xlink" x="0px" y="0px"
	 width="80px" height="70px" viewBox="0.122 -3.158 80 70" enable-background="new 0.122 -3.158 80 70" xml:space="preserve">
<path fill="#FFFFFF" d="M71.895,33.781c0-0.302-0.016-0.599-0.027-0.896l3.777-1.03c-0.072-1.129-0.223-2.238-0.436-3.333
	l-4.113-0.343c-0.576-2.004-1.453-3.916-2.594-5.701l3.396-2.595c-0.6-1.009-1.258-1.985-1.977-2.924l-4.752,1.374
	c-1.357-1.371-2.889-2.622-4.571-3.733l2.296-4.358c-1.014-0.718-2.077-1.381-3.18-1.995l-4.457,3.527
	c-1.639-0.686-3.362-1.257-5.159-1.698l0.056-5.556c-1.244-0.3-2.516-0.547-3.811-0.729l-2.666,5.298
	c-0.852-0.057-1.713-0.093-2.586-0.093c-0.882,0-1.753,0.037-2.615,0.096l-2.721-5.408c-1.275,0.153-2.532,0.36-3.76,0.628
	l0.057,5.771c-1.792,0.44-3.511,1.015-5.147,1.701l-4.828-3.825c-1.057,0.567-2.075,1.184-3.053,1.843l2.538,4.814
	c-1.679,1.106-3.204,2.356-4.556,3.724l-5.502-1.591c-0.67,0.858-1.289,1.751-1.856,2.67l4.022,3.076
	c-1.132,1.779-2.006,3.685-2.579,5.681l-5.047,0.421c-0.19,0.992-0.325,2-0.399,3.022l4.673,1.274
	c-0.014,0.293-0.027,0.588-0.027,0.887c0,1.886,0.271,3.721,0.767,5.485l-4.29,2.099c0.305,0.977,0.667,1.932,1.078,2.865
	l5.038-0.496c1.023,1.876,2.327,3.627,3.868,5.226l-3.195,3.732c0.748,0.781,1.542,1.527,2.377,2.24l4.898-2.495
	c1.695,1.194,3.549,2.243,5.54,3.118L25.09,60.56c1.068,0.455,2.163,0.865,3.287,1.228l3.574-4.332
	c1.948,0.485,3.981,0.818,6.072,0.984l1.228,5.213c0.461,0.018,0.922,0.03,1.384,0.03c0.768,0,1.523-0.026,2.279-0.068l1.217-5.172
	c2.096-0.165,4.127-0.497,6.078-0.981l3.377,4.092c1.162-0.396,2.293-0.845,3.392-1.343l-1.188-4.643
	c1.996-0.874,3.854-1.925,5.553-3.119l4.32,2.198c0.889-0.776,1.725-1.598,2.51-2.454l-2.752-3.215
	c1.547-1.602,2.854-3.358,3.884-5.239l4.161,0.408c0.449-1.026,0.838-2.08,1.156-3.157l-3.494-1.708
	C71.622,37.511,71.895,35.672,71.895,33.781z M41.101,53.975c-12.912,0-23.379-8.999-23.379-20.1s10.467-20.1,23.379-20.1
	c12.909,0,23.377,8.999,23.377,20.1S54.01,53.975,41.101,53.975z"/>
<g id="svg1_copy_3_2_" xmlns:inkscape="http://www.inkscape.org/namespaces/inkscape" xmlns:rdf="http://www.w3.org/1999/02/22-rdf-syntax-ns#" xmlns:svg="http://www.w3.org/2000/svg" xmlns:dc="http://purl.org/dc/elements/1.1/" xmlns:sodipodi="http://sodipodi.sourceforge.net/DTD/sodipodi-0.dtd" xmlns:cc="http://creativecommons.org/ns#" sodipodi:version="0.32" sodipodi:docbase="C:\Documents and Settings\Jon Phillips\My Documents\projects\clipart-project\submissions" sodipodi:docname="heart_jon_phillips_01.svg" inkscape:version="0.46" inkscape:output_extension="org.inkscape.output.svg.inkscape">
	<defs>
		
		
			<inkscape:perspective  inkscape:vp_y="0 : 1000 : 0" inkscape:vp_z="744.09448 : 526.18109 : 1" inkscape:vp_x="0 : 526.18109 : 1" sodipodi:type="inkscape:persp3d" id="perspective9" inkscape:persp3d-origin="372.04724 : 350.78739 : 1">
			</inkscape:perspective>
	</defs>
	
		<sodipodi:namedview  pagecolor="#ffffff" inkscape:zoom="0.35" showguides="true" borderopacity="1.0" showgrid="false" inkscape:cx="549.40674" inkscape:cy="596.00159" bordercolor="#666666" id="base" inkscape:window-x="88" inkscape:document-units="px" inkscape:pageopacity="0.0" inkscape:window-height="667" inkscape:current-layer="layer1" inkscape:guide-bbox="true" inkscape:pageshadow="2" inkscape:window-width="866" inkscape:window-y="116">
		</sodipodi:namedview>
	<g id="layer1_2_" transform="translate(-134.06575,-225.79588)" inkscape:label="Layer 1" inkscape:groupmode="layer">
		<path id="path7_2_" sodipodi:nodetypes="ccccccc" fill="#FFFFFF" d="M167.858,249.775c-4.512,0-8.17,3.006-8.17,6.709
			c0,7.536,9.25,9.513,15.558,16.96c5.969-7.399,15.557-9.666,15.557-16.96c0-3.705-3.66-6.709-8.17-6.709
			c-3.27,0-6.082,1.584-7.387,3.869C173.941,251.36,171.129,249.775,167.858,249.775z"/>
	</g>
</g>
</svg>
