<?xml version="1.0" encoding="utf-8"?>
<!-- Generator: Adobe Illustrator 16.0.0, SVG Export Plug-In . SVG Version: 6.00 Build 0)  -->
<!DOCTYPE svg PUBLIC "-//W3C//DTD SVG 1.1//EN" "http://www.w3.org/Graphics/SVG/1.1/DTD/svg11.dtd">
<svg version="1.1" id="Layer_1" xmlns="http://www.w3.org/2000/svg" xmlns:xlink="http://www.w3.org/1999/xlink" x="0px" y="0px"
	 width="80.243px" height="63.684px" viewBox="0 0 80.243 63.684" enable-background="new 0 0 80.243 63.684" xml:space="preserve">
<path fill="#FFFFFF" d="M71.895,33.781c0-0.301-0.015-0.598-0.028-0.896l3.778-1.03c-0.072-1.129-0.222-2.239-0.435-3.333
	l-4.114-0.343c-0.576-2.004-1.453-3.916-2.593-5.701l3.396-2.595c-0.599-1.009-1.258-1.985-1.977-2.924l-4.751,1.374
	c-1.358-1.371-2.889-2.622-4.572-3.733l2.296-4.359c-1.013-0.717-2.077-1.38-3.18-1.995l-4.457,3.528
	c-1.639-0.686-3.362-1.257-5.159-1.699l0.056-5.555c-1.244-0.3-2.516-0.547-3.811-0.729l-2.666,5.298
	c-0.852-0.057-1.713-0.093-2.586-0.093c-0.882,0-1.753,0.037-2.615,0.096l-2.721-5.408c-1.275,0.153-2.532,0.36-3.76,0.628
	l0.057,5.771c-1.792,0.441-3.511,1.015-5.147,1.701l-4.828-3.825c-1.057,0.568-2.075,1.184-3.053,1.843l2.538,4.814
	c-1.679,1.107-3.204,2.357-4.556,3.724l-5.502-1.591c-0.67,0.859-1.289,1.751-1.856,2.67l4.022,3.076
	c-1.132,1.78-2.006,3.685-2.579,5.681l-5.047,0.421c-0.19,0.992-0.325,2-0.399,3.022l4.673,1.275
	c-0.014,0.293-0.027,0.588-0.027,0.886c0,1.886,0.271,3.721,0.767,5.486l-4.29,2.098c0.305,0.977,0.667,1.932,1.078,2.866
	l5.038-0.496c1.023,1.876,2.327,3.627,3.868,5.225l-3.195,3.733c0.748,0.781,1.542,1.527,2.377,2.24l4.898-2.495
	c1.695,1.194,3.549,2.243,5.54,3.118l-1.283,5.005c1.068,0.455,2.163,0.865,3.287,1.227l3.574-4.332
	c1.948,0.486,3.981,0.819,6.072,0.985l1.228,5.213c0.461,0.017,0.922,0.03,1.385,0.03c0.767,0,1.523-0.027,2.278-0.069l1.218-5.171
	c2.095-0.165,4.127-0.497,6.077-0.982l3.377,4.092c1.162-0.397,2.294-0.845,3.392-1.343l-1.189-4.642
	c1.996-0.874,3.855-1.925,5.554-3.12l4.32,2.199c0.888-0.777,1.724-1.598,2.509-2.454l-2.752-3.215
	c1.547-1.602,2.855-3.359,3.884-5.24l4.161,0.409c0.449-1.027,0.838-2.08,1.157-3.158l-3.495-1.708
	C71.622,37.511,71.895,35.672,71.895,33.781z M41.101,53.975c-12.912,0-23.379-8.999-23.379-20.1
	c0-11.1,10.467-20.099,23.379-20.099c12.91,0,23.377,8.999,23.377,20.099C64.478,44.976,54.011,53.975,41.101,53.975z"/>
<g id="svg1_copy_3_2_" xmlns:inkscape="http://www.inkscape.org/namespaces/inkscape" xmlns:rdf="http://www.w3.org/1999/02/22-rdf-syntax-ns#" xmlns:svg="http://www.w3.org/2000/svg" xmlns:dc="http://purl.org/dc/elements/1.1/" xmlns:sodipodi="http://sodipodi.sourceforge.net/DTD/sodipodi-0.dtd" xmlns:cc="http://creativecommons.org/ns#" inkscape:output_extension="org.inkscape.output.svg.inkscape" inkscape:version="0.46" sodipodi:docname="heart_jon_phillips_01.svg" sodipodi:docbase="C:\Documents and Settings\Jon Phillips\My Documents\projects\clipart-project\submissions" sodipodi:version="0.32">
	<defs>
		
		
			<inkscape:perspective  sodipodi:type="inkscape:persp3d" inkscape:vp_x="0 : 526.18109 : 1" inkscape:vp_z="744.09448 : 526.18109 : 1" inkscape:vp_y="0 : 1000 : 0" id="perspective9" inkscape:persp3d-origin="372.04724 : 350.78739 : 1">
			</inkscape:perspective>
	</defs>
	
		<sodipodi:namedview  bordercolor="#666666" inkscape:cy="596.00159" inkscape:cx="549.40674" showgrid="false" borderopacity="1.0" showguides="true" inkscape:zoom="0.35" pagecolor="#ffffff" id="base" inkscape:window-y="116" inkscape:window-width="866" inkscape:pageshadow="2" inkscape:guide-bbox="true" inkscape:current-layer="layer1" inkscape:window-height="667" inkscape:pageopacity="0.0" inkscape:document-units="px" inkscape:window-x="88">
		</sodipodi:namedview>
	<g id="layer1_2_" transform="translate(-134.06575,-225.79588)" inkscape:label="Layer 1" inkscape:groupmode="layer">
		<path id="path7_2_" sodipodi:nodetypes="ccccccc" fill="#FFFFFF" d="M167.858,249.775c-4.512,0-8.17,3.005-8.17,6.709
			c0,7.536,9.25,9.512,15.558,16.96c5.968-7.4,15.557-9.666,15.557-16.96c0-3.705-3.66-6.709-8.171-6.709
			c-3.269,0-6.081,1.584-7.386,3.869C173.941,251.36,171.129,249.775,167.858,249.775z"/>
	</g>
</g>
</svg>
